<svg width="371" height="348" viewBox="0 0 371 348" fill="none" xmlns="http://www.w3.org/2000/svg">
<rect x="-5" y="-4" width="375" height="409" fill="#314773"/>
<ellipse cx="194" cy="272" rx="40" ry="43" fill="#4F92C2"/>
<path d="M207.454 280.332C209.999 281.911 209.921 285.217 207.977 287.881C206.787 289.511 205.907 291.601 206.111 294.426C206.493 299.7 202.018 309.874 197.623 307.916C196.272 307.314 194.73 306.576 192.958 305.674C192.403 305.392 191.078 305.209 191.634 305.49C192.911 306.134 199.537 307.454 186.388 302.976C186.097 302.877 185.795 302.75 185.555 302.551C182.55 300.066 181.223 290.785 179.272 287.496C177.686 284.822 177.209 283.177 173.514 282.544C171.258 282.157 169.063 280.484 167.544 278.691C163.982 274.487 157.052 269.169 158.086 266.093C159.359 262.304 160.17 254.771 167.611 252.978C168.674 252.722 169.701 252.219 170.577 251.471C175.096 247.615 179.361 247.406 182.862 247.731C186.01 248.023 189.143 251.855 188.791 255.34L188.748 255.765C188.665 256.594 188.842 257.41 189.25 258.077L194.568 266.768C195.385 268.103 193.516 270.404 192.041 270.132C189.391 269.643 187.47 270.28 186.554 271.101C185.875 271.709 188.3 274.66 188.749 275.414V275.414C188.882 275.637 188.597 275.611 188.351 275.683C182.868 277.286 188.277 277.72 188.37 278.76C188.465 279.824 188.784 280.832 189.303 281.707C189.822 282.582 190.527 283.3 191.364 283.808C192.201 284.315 193.148 284.598 194.132 284.635V284.635C195.718 284.693 195.977 282.803 196.07 281.056C196.141 279.724 198.371 280.333 203.833 279.436C204.922 279.257 206.018 279.441 206.94 280.013L207.454 280.332Z" fill="#759E54"/>
<path d="M231.439 257.13C231.83 258.588 231.778 260.56 230.863 261.823C228.934 264.487 221.702 266.394 217.403 274.864C216.78 276.091 215.86 277.197 214.636 277.62C209.103 279.533 207.23 275.996 202.994 275.443C199.517 274.99 196.711 272.765 199.383 270.063C201.716 267.705 205.215 264.736 210.181 259.849C220.134 250.057 230.278 252.792 231.439 257.13Z" fill="#759E54"/>
<path d="M215.552 274.517C219.572 275.487 221.514 276.115 221.857 283.653C219.432 287.915 220.732 301.036 216.712 300.066C213.181 294.368 209.235 293.95 208.893 286.411C210.181 278.76 211.532 273.547 215.552 274.517Z" fill="#759E54"/>
<ellipse rx="4.14729" ry="10.5857" transform="matrix(0.785231 0.537599 -0.199256 1.02688 219.361 289.238)" fill="#759E54"/>
<g filter="url(#filter0_d)">
<ellipse cx="211.5" cy="263.225" rx="9.5" ry="8.775" fill="white"/>
<ellipse cx="227.333" cy="258.5" rx="16.4667" ry="13.5" fill="white"/>
<ellipse cx="243.8" cy="254.45" rx="7.6" ry="6.75" fill="white"/>
<ellipse cx="243.167" cy="263.225" rx="15.8333" ry="8.775" fill="white"/>
</g>
<g filter="url(#filter1_d)">
<ellipse cx="150.167" cy="284.575" rx="9.16667" ry="9.425" fill="white"/>
<ellipse cx="165.444" cy="279.5" rx="15.8889" ry="14.5" fill="white"/>
<ellipse cx="181.333" cy="275.15" rx="7.33334" ry="7.25" fill="white"/>
<ellipse cx="180.722" cy="284.575" rx="15.2778" ry="9.425" fill="white"/>
</g>
<path d="M209.649 232.92C210.875 234.035 209.623 235.529 208.101 236.183C204.939 237.54 201.594 240.539 197.467 241.61C195.863 242.027 193.913 240.719 192.353 240.158C187.886 238.553 178 238.279 178 235.5C178 231.91 185.387 229 194.5 229C201.286 229 207.115 230.614 209.649 232.92Z" fill="#E9F8FF"/>
<rect x="120.678" y="144.662" width="129.662" height="36.1692" fill="#B7F4F4"/>
<path d="M120.674 146.824C120.763 139.493 122.527 132.256 125.867 125.526C129.206 118.795 134.056 112.703 140.138 107.598C146.22 102.493 153.416 98.4742 161.315 95.7713C169.214 93.0685 177.661 91.7345 186.174 91.8455C194.687 91.9566 203.099 93.5105 210.931 96.4185C218.762 99.3265 225.858 103.532 231.816 108.794C237.773 114.056 242.473 120.272 245.649 127.088C248.825 133.903 250.414 141.184 250.326 148.515L185.5 147.67L120.674 146.824Z" fill="#B7F4F4"/>
<rect x="202.629" y="119.577" width="17.4005" height="61.2542" fill="#C4C4C4"/>
<path d="M250.34 180.831C250.34 185.581 248.663 190.284 245.405 194.672C242.147 199.06 237.371 203.048 231.351 206.406C225.331 209.765 218.184 212.429 210.318 214.247C202.453 216.064 194.022 217 185.509 217C176.995 217 168.565 216.064 160.699 214.247C152.833 212.429 145.686 209.765 139.666 206.406C133.646 203.048 128.871 199.06 125.613 194.672C122.355 190.284 120.678 185.581 120.678 180.831L185.509 180.831H250.34Z" fill="#A2CD5B"/>
<rect x="148.743" y="156.329" width="9.54223" height="24.5017" fill="#C4C4C4"/>
<rect x="156.04" y="126.577" width="22.4523" height="54.2538" fill="#B1AFAF"/>
<rect x="213.855" y="167.413" width="2.24522" height="5.83374" fill="#DCF7F3"/>
<rect x="171.195" y="142.328" width="20.7684" height="38.5027" fill="#C4C4C4"/>
<rect x="184.105" y="163.913" width="30.3106" height="16.9178" fill="#A7A5A5"/>
<rect x="205.996" y="108.492" width="10.6648" height="11.0841" fill="#CDCDCD"/>
<rect x="208.803" y="102.075" width="5.05177" height="6.41711" fill="#D3D3D3"/>
<line x1="211.109" y1="102.075" x2="211.109" y2="99.1585" stroke="#534E4E"/>
<rect x="152.111" y="160.996" width="2.24523" height="5.83373" fill="#DCF7F3"/>
<rect x="152.111" y="171.497" width="2.24523" height="5.83374" fill="#DCF7F3"/>
<rect x="159.969" y="132.994" width="2.24523" height="5.83374" fill="#DCF7F3"/>
<rect x="159.969" y="142.912" width="2.24523" height="5.83374" fill="#DCF7F3"/>
<rect x="159.969" y="153.996" width="2.24523" height="5.83374" fill="#DCF7F3"/>
<rect x="159.969" y="164.496" width="2.24523" height="5.83374" fill="#DCF7F3"/>
<rect x="166.144" y="164.496" width="2.24523" height="5.83374" fill="#DCF7F3"/>
<rect x="166.144" y="153.996" width="2.24523" height="5.83374" fill="#DCF7F3"/>
<rect x="166.144" y="142.912" width="2.24523" height="5.83374" fill="#DCF7F3"/>
<rect x="166.144" y="132.994" width="2.24523" height="5.83374" fill="#DCF7F3"/>
<rect x="172.879" y="132.994" width="2.24523" height="5.83374" fill="#DCF7F3"/>
<rect x="174.563" y="171.497" width="2.24523" height="5.83374" fill="#DCF7F3"/>
<rect x="180.176" y="171.497" width="2.24523" height="5.83374" fill="#DCF7F3"/>
<rect x="180.176" y="161.579" width="2.24523" height="5.83373" fill="#DCF7F3"/>
<rect x="188.035" y="169.747" width="2.24523" height="5.83374" fill="#DCF7F3"/>
<rect x="208.242" y="169.747" width="2.24524" height="5.83374" fill="#DCF7F3"/>
<rect x="194.77" y="169.747" width="2.24522" height="5.83374" fill="#DCF7F3"/>
<rect x="206.558" y="155.746" width="2.24522" height="5.83375" fill="#DCF7F3"/>
<rect x="209.926" y="111.409" width="2.24522" height="5.83374" fill="#DCF7F3"/>
<rect x="213.855" y="155.746" width="2.24522" height="5.83375" fill="#DCF7F3"/>
<rect x="213.855" y="145.245" width="2.24522" height="5.83374" fill="#DCF7F3"/>
<rect x="206.558" y="145.245" width="2.24522" height="5.83374" fill="#DCF7F3"/>
<rect x="206.558" y="124.244" width="2.24522" height="5.83374" fill="#DCF7F3"/>
<rect x="206.558" y="134.744" width="2.24522" height="5.83374" fill="#DCF7F3"/>
<rect x="213.855" y="134.744" width="2.24522" height="5.83374" fill="#DCF7F3"/>
<rect x="213.855" y="124.244" width="2.24522" height="5.83374" fill="#DCF7F3"/>
<rect x="201.506" y="169.747" width="2.24524" height="5.83374" fill="#DCF7F3"/>
<rect x="174.563" y="161.579" width="2.24523" height="5.83373" fill="#DCF7F3"/>
<rect x="174.563" y="151.079" width="2.24523" height="5.83374" fill="#DCF7F3"/>
<rect x="180.176" y="151.079" width="2.24523" height="5.83374" fill="#DCF7F3"/>
<rect x="185.789" y="151.079" width="2.24522" height="5.83374" fill="#DCF7F3"/>
<ellipse cx="152.953" cy="112.284" rx="7.01634" ry="6.7088" fill="#FDEC4B"/>
<ellipse cx="234.342" cy="172.08" rx="1.96458" ry="2.3335" fill="#7D68FF"/>
<rect x="232.939" y="174.997" width="2.80653" height="5.83374" fill="#7D68FF"/>
<path d="M184.5 256L180.603 197.5H188.397L184.5 256Z" fill="#A2CD5B"/>
<path d="M274.5 151C274.5 204.445 233.837 247.5 184 247.5C134.163 247.5 93.5 204.445 93.5 151C93.5 97.555 134.163 54.5 184 54.5C233.837 54.5 274.5 97.555 274.5 151Z" fill="#14C2AE" fill-opacity="0.15" stroke="black" stroke-width="5"/>
<rect x="262" y="95.275" width="92" height="14" transform="rotate(-20.5372 262 95.275)" fill="black"/>
<defs>
<filter id="filter0_d" x="200" y="245" width="61" height="31" filterUnits="userSpaceOnUse" color-interpolation-filters="sRGB">
<feFlood flood-opacity="0" result="BackgroundImageFix"/>
<feColorMatrix in="SourceAlpha" type="matrix" values="0 0 0 0 0 0 0 0 0 0 0 0 0 0 0 0 0 0 127 0"/>
<feOffset dy="2"/>
<feGaussianBlur stdDeviation="1"/>
<feColorMatrix type="matrix" values="0 0 0 0 0 0 0 0 0 0 0 0 0 0 0 0 0 0 0.25 0"/>
<feBlend mode="normal" in2="BackgroundImageFix" result="effect1_dropShadow"/>
<feBlend mode="normal" in="SourceGraphic" in2="effect1_dropShadow" result="shape"/>
</filter>
<filter id="filter1_d" x="139" y="265" width="59" height="33" filterUnits="userSpaceOnUse" color-interpolation-filters="sRGB">
<feFlood flood-opacity="0" result="BackgroundImageFix"/>
<feColorMatrix in="SourceAlpha" type="matrix" values="0 0 0 0 0 0 0 0 0 0 0 0 0 0 0 0 0 0 127 0"/>
<feOffset dy="2"/>
<feGaussianBlur stdDeviation="1"/>
<feColorMatrix type="matrix" values="0 0 0 0 0 0 0 0 0 0 0 0 0 0 0 0 0 0 0.25 0"/>
<feBlend mode="normal" in2="BackgroundImageFix" result="effect1_dropShadow"/>
<feBlend mode="normal" in="SourceGraphic" in2="effect1_dropShadow" result="shape"/>
</filter>
</defs>
</svg>
