<svg width="22" height="22" viewBox="0 0 22 22" fill="none" xmlns="http://www.w3.org/2000/svg">
<rect x="0.1138" y="9.36949" width="21.7753" height="6.31525" fill="#B7F4F4"/>
<path d="M0.113205 9.74706C0.128071 8.46706 0.424388 7.20341 0.985236 6.02826C1.54608 4.85311 2.36048 3.78948 3.38192 2.89809C4.40337 2.0067 5.61186 1.30501 6.93839 0.833083C8.26493 0.36116 9.68353 0.128243 11.1132 0.14763C12.5429 0.167018 13.9556 0.438331 15.2708 0.946078C16.5859 1.45383 17.7778 2.18807 18.7782 3.10687C19.7786 4.02568 20.568 5.11107 21.1014 6.30105C21.6348 7.49104 21.9017 8.76233 21.8868 10.0423L11 9.8947L0.113205 9.74706Z" fill="#B7F4F4"/>
<rect x="13.8766" y="4.98956" width="2.92223" height="10.6952" fill="#C4C4C4"/>
<path d="M21.8891 15.6847C21.8891 16.5141 21.6075 17.3353 21.0603 18.1015C20.5132 18.8677 19.7112 19.5639 18.7002 20.1503C17.6892 20.7367 16.4889 21.2019 15.168 21.5193C13.847 21.8366 12.4312 22 11.0015 22C9.57166 22 8.15588 21.8366 6.83493 21.5193C5.51398 21.2019 4.31373 20.7367 3.30272 20.1503C2.29171 19.5639 1.48973 18.8677 0.942573 18.1015C0.395417 17.3353 0.1138 16.5141 0.1138 15.6847L11.0015 15.6847H21.8891Z" fill="#A2CD5B"/>
<rect x="4.82709" y="11.4067" width="1.60251" height="4.27808" fill="#C4C4C4"/>
<rect x="6.05252" y="6.21187" width="3.77062" height="9.47288" fill="#B1AFAF"/>
<rect x="15.7618" y="13.342" width="0.377062" height="1.01859" fill="#DCF7F3"/>
<rect x="8.59769" y="8.96205" width="3.48782" height="6.72269" fill="#C4C4C4"/>
<rect x="10.7658" y="12.7308" width="5.09033" height="2.95391" fill="#A7A5A5"/>
<rect x="14.4421" y="3.05424" width="1.79104" height="1.93532" fill="#CDCDCD"/>
<rect x="14.9135" y="1.93379" width="0.848389" height="1.12045" fill="#D3D3D3"/>
<line x1="14.8848" y1="1.93379" x2="14.8848" y2="1.4245" stroke="#534E4E"/>
<rect x="5.39267" y="12.2215" width="0.377058" height="1.01859" fill="#DCF7F3"/>
<rect x="5.39267" y="14.055" width="0.377058" height="1.01859" fill="#DCF7F3"/>
<rect x="6.71237" y="7.33232" width="0.377061" height="1.01859" fill="#DCF7F3"/>
<rect x="6.71237" y="9.06392" width="0.377061" height="1.01859" fill="#DCF7F3"/>
<rect x="6.71237" y="10.9992" width="0.377061" height="1.0186" fill="#DCF7F3"/>
<rect x="6.71237" y="12.8327" width="0.377061" height="1.01859" fill="#DCF7F3"/>
<rect x="7.7493" y="12.8327" width="0.377062" height="1.01859" fill="#DCF7F3"/>
<rect x="7.7493" y="10.9992" width="0.377062" height="1.0186" fill="#DCF7F3"/>
<rect x="7.7493" y="9.06392" width="0.377062" height="1.01859" fill="#DCF7F3"/>
<rect x="7.7493" y="7.33232" width="0.377062" height="1.01859" fill="#DCF7F3"/>
<rect x="8.88049" y="7.33232" width="0.377061" height="1.01859" fill="#DCF7F3"/>
<rect x="9.1633" y="14.055" width="0.377062" height="1.01859" fill="#DCF7F3"/>
<rect x="10.1059" y="14.055" width="0.377061" height="1.01859" fill="#DCF7F3"/>
<rect x="10.1059" y="12.3234" width="0.377061" height="1.01858" fill="#DCF7F3"/>
<rect x="11.4257" y="13.7494" width="0.377069" height="1.01859" fill="#DCF7F3"/>
<rect x="14.8192" y="13.7494" width="0.377063" height="1.01859" fill="#DCF7F3"/>
<rect x="12.5568" y="13.7494" width="0.377061" height="1.01859" fill="#DCF7F3"/>
<rect x="14.5364" y="11.3048" width="0.377061" height="1.0186" fill="#DCF7F3"/>
<rect x="15.102" y="3.56354" width="0.377061" height="1.01859" fill="#DCF7F3"/>
<rect x="15.7618" y="11.3048" width="0.377062" height="1.0186" fill="#DCF7F3"/>
<rect x="15.7618" y="9.47134" width="0.377062" height="1.01859" fill="#DCF7F3"/>
<rect x="14.5364" y="9.47134" width="0.377061" height="1.01859" fill="#DCF7F3"/>
<rect x="14.5364" y="5.80443" width="0.377061" height="1.01859" fill="#DCF7F3"/>
<rect x="14.5364" y="7.63789" width="0.377061" height="1.01859" fill="#DCF7F3"/>
<rect x="15.7618" y="7.63789" width="0.377062" height="1.01859" fill="#DCF7F3"/>
<rect x="15.7618" y="5.80443" width="0.377062" height="1.01859" fill="#DCF7F3"/>
<rect x="13.688" y="13.7494" width="0.377063" height="1.01859" fill="#DCF7F3"/>
<rect x="9.1633" y="12.3234" width="0.377062" height="1.01858" fill="#DCF7F3"/>
<rect x="9.1633" y="10.4899" width="0.377062" height="1.01859" fill="#DCF7F3"/>
<rect x="10.1059" y="10.4899" width="0.377061" height="1.01859" fill="#DCF7F3"/>
<rect x="11.0486" y="10.4899" width="0.377048" height="1.01859" fill="#DCF7F3"/>
<ellipse cx="5.53406" cy="3.71633" rx="1.17832" ry="1.17138" fill="#FDEC4B"/>
<ellipse cx="19.2025" cy="14.1569" rx="0.329928" ry="0.407436" fill="#7D68FF"/>
<rect x="18.9669" y="14.6662" width="0.471327" height="1.01859" fill="#7D68FF"/>
</svg>
