<svg width="91" height="90" viewBox="0 0 91 90" fill="none" xmlns="http://www.w3.org/2000/svg">
<ellipse cx="45.5" cy="45" rx="45.5" ry="45" fill="#8DAAC6"/>
<path d="M45.542 14H44.6235C43.5189 14 42.6235 14.8954 42.6235 16V76C42.6235 77.1046 43.5189 78 44.6235 78H45.542C46.6466 78 47.542 77.1046 47.542 76V16C47.542 14.8954 46.6466 14 45.542 14Z" fill="white"/>
<path d="M17.0897 28.7901L16.6615 29.455C16.0634 30.3837 16.347 31.5962 17.2948 32.1634L70.2763 63.8643C71.2242 64.4314 72.4774 64.1383 73.0755 63.2097L73.5037 62.5448C74.1018 61.6162 73.8183 60.4036 72.8704 59.8365L19.8889 28.1356C18.9411 27.5685 17.6878 27.8615 17.0897 28.7901Z" fill="white"/>
<path d="M73.5042 29.4557L73.076 28.7908C72.4779 27.8621 71.2247 27.5691 70.2768 28.1362L17.2946 59.8361C16.3467 60.4032 16.0632 61.6158 16.6613 62.5444L17.0895 63.2093C17.6875 64.138 18.9408 64.4311 19.8886 63.8639L72.8709 32.164C73.8187 31.5969 74.1023 30.3843 73.5042 29.4557Z" fill="white"/>
<path d="M55.5347 17.0167L54.9113 16.4583C54.0885 15.7213 52.8 15.7685 52.0333 16.5637L45.0442 23.813C44.2775 24.6082 44.3231 25.8503 45.1458 26.5872L45.7693 27.1456C46.5921 27.8826 47.8806 27.8354 48.6472 27.0402L55.6364 19.7908C56.403 18.9957 56.3575 17.7536 55.5347 17.0167Z" fill="white"/>
<path d="M34.8997 16.1244L34.2762 16.6828C33.4534 17.4197 33.4078 18.6617 34.1744 19.457L41.1633 26.7065C41.9299 27.5018 43.2184 27.549 44.0412 26.8121L44.6647 26.2537C45.4875 25.5168 45.5331 24.2748 44.7665 23.4795L37.7776 16.23C37.011 15.4347 35.7225 15.3875 34.8997 16.1244Z" fill="white"/>
<path d="M76.1788 39.0981L76.2975 38.3588C76.4696 37.2869 75.7096 36.2765 74.6001 36.102L64.4198 34.5012C63.3103 34.3267 62.2713 35.0543 62.0992 36.1262L61.9805 36.8655C61.8084 37.9374 62.5683 38.9478 63.6779 39.1223L73.8582 40.7231C74.9677 40.8976 76.0067 40.17 76.1788 39.0981Z" fill="white"/>
<path d="M65.4242 22.1126L64.5431 21.9099C63.4485 21.6581 62.3555 22.3096 62.1018 23.3652L59.7924 32.9733C59.5387 34.0289 60.2204 35.0888 61.315 35.3406L62.1961 35.5433C63.2907 35.7951 64.3837 35.1435 64.6374 34.0879L66.9467 24.4799C67.2005 23.4243 66.5188 22.3644 65.4242 22.1126Z" fill="white"/>
<path d="M64.9475 70.2227L65.8275 70.0046C66.9175 69.7346 67.5802 68.6635 67.3077 67.6123L64.8284 58.0468C64.5559 56.9956 63.4515 56.3623 62.3615 56.6324L61.4815 56.8504C60.3915 57.1204 59.7288 58.1915 60.0013 59.2427L62.4806 68.8082C62.753 69.8594 63.8575 70.4927 64.9475 70.2227Z" fill="white"/>
<path d="M76.9906 53.9419L76.8593 53.2074C76.6681 52.1385 75.6164 51.4283 74.5102 51.6213L64.3567 53.3922C63.2505 53.5851 62.5087 54.6081 62.6999 55.6771L62.8312 56.4115C63.0224 57.4805 64.0741 58.1906 65.1803 57.9977L75.3338 56.2268C76.44 56.0338 77.1817 55.0108 76.9906 53.9419Z" fill="white"/>
<path d="M15.8153 50.5863L15.6147 51.2966C15.319 52.3435 15.9565 53.4298 17.0385 53.7228L26.9867 56.4173C28.0688 56.7103 29.1856 56.0992 29.4813 55.0523L29.6819 54.342C29.9776 53.2951 29.3401 52.2089 28.2581 51.9158L18.3099 49.2214C17.2278 48.9283 16.111 49.5394 15.8153 50.5863Z" fill="white"/>
<path d="M24.535 68.6126L25.398 68.913C26.4568 69.2814 27.6189 68.7522 27.9936 67.7309L31.4001 58.4478C31.7749 57.4265 31.2204 56.2999 30.1616 55.9315L29.2986 55.6312C28.2398 55.2627 27.0777 55.792 26.703 56.8133L23.2965 66.0963C22.9217 67.1176 23.4762 68.2442 24.535 68.6126Z" fill="white"/>
<path d="M25.1703 22.6479L24.3034 22.9356C23.2391 23.2887 22.6671 24.4073 23.0259 25.4339L26.2874 34.7668C26.6461 35.7935 27.7998 36.3395 28.8641 35.9863L29.731 35.6987C30.7953 35.3455 31.3673 34.227 31.0085 33.2003L27.7471 23.8674C27.3883 22.8408 26.2346 22.2948 25.1703 22.6479Z" fill="white"/>
<path d="M14.5056 39.8055L14.6953 40.5194C14.9746 41.5704 16.0817 42.1975 17.1682 41.92L27.1553 39.3695C28.2417 39.092 28.8961 38.0151 28.6169 36.964L28.4272 36.2502C28.1479 35.1992 27.0408 34.572 25.9543 34.8495L15.9672 37.4C14.8808 37.6775 14.2264 38.7545 14.5056 39.8055Z" fill="white"/>
<path d="M34.5422 74.9354L35.183 75.4841C36.0227 76.2031 37.3097 76.1281 38.0576 75.3165L44.8722 67.9221C45.6201 67.1106 45.5457 65.8698 44.706 65.1508L44.0652 64.6021C43.2255 63.8831 41.9385 63.9581 41.1906 64.7697L34.376 72.1641C33.6281 72.9757 33.7025 74.2164 34.5422 74.9354Z" fill="white"/>
<path d="M55.1971 75.3857L55.8031 74.8181C56.6086 74.0636 56.6253 72.8208 55.8403 72.0424L48.6804 64.9414C47.8954 64.163 46.6062 64.1436 45.8007 64.8981L45.1947 65.4657C44.3892 66.2203 44.3726 67.463 45.1575 68.2414L52.3175 75.3424C53.1024 76.1208 54.3917 76.1402 55.1971 75.3857Z" fill="white"/>
</svg>
