<svg width="93" height="92" viewBox="0 0 93 92" fill="none" xmlns="http://www.w3.org/2000/svg">
<ellipse cx="46.3529" cy="45.9821" rx="46.1176" ry="45.9464" fill="#1E222F"/>
<mask id="path-2-inside-1" fill="white">
<path d="M20 38.7C20 34.834 23.134 31.7 27 31.7H59C62.866 31.7 66 34.834 66 38.7V63.9667C66 67.8327 62.866 70.9667 59 70.9667H22C20.8954 70.9667 20 70.0712 20 68.9667V38.7Z"/>
</mask>
<path d="M20 38.7C20 34.834 23.134 31.7 27 31.7H59C62.866 31.7 66 34.834 66 38.7V63.9667C66 67.8327 62.866 70.9667 59 70.9667H22C20.8954 70.9667 20 70.0712 20 68.9667V38.7Z" fill="#B27214" stroke="#583604" stroke-width="6" mask="url(#path-2-inside-1)"/>
<rect x="1.87639" y="-0.295346" width="43.672" height="23.4217" transform="matrix(0.505115 -0.863052 0.745813 0.666155 31.4614 51.8012)" fill="#89B543" stroke="#4A7A23" stroke-width="3"/>
<rect x="1.88717" y="-0.053372" width="41.5457" height="24.1638" transform="matrix(0.607086 -0.794636 0.651027 0.759055 22.1512 47.7337)" fill="#9ACB4A" stroke="#4A7A23" stroke-width="3"/>
<rect x="1.56793" y="-1.38865" width="38.5732" height="21.3392" transform="matrix(0.0479588 -0.998849 0.997326 0.0730799 30.3744 61.1468)" fill="#A1DB43" stroke="#4A7A23" stroke-width="3"/>
<path d="M30.5 40.9667C32.3982 40.9667 34.0453 39.9523 35.1851 38.4533C36.3243 36.9551 37 34.9294 37 32.7333C37 30.5372 36.3243 28.5116 35.1851 27.0133C34.0453 25.5143 32.3982 24.5 30.5 24.5C28.6018 24.5 26.9547 25.5143 25.8149 27.0133C24.6757 28.5116 24 30.5372 24 32.7333C24 34.9294 24.6757 36.9551 25.8149 38.4533C26.9547 39.9523 28.6018 40.9667 30.5 40.9667Z" fill="#F7B239" stroke="#E18F43" stroke-width="2"/>
<path d="M30.5 37.3667C31.6584 37.3667 32.6696 36.7417 33.3744 35.8054C34.0789 34.8693 34.5 33.5989 34.5 32.2167C34.5 30.8345 34.0789 29.564 33.3744 28.6279C32.6696 27.6917 31.6584 27.0667 30.5 27.0667C29.3416 27.0667 28.3304 27.6917 27.6256 28.6279C26.9211 29.564 26.5 30.8345 26.5 32.2167C26.5 33.5989 26.9211 34.8693 27.6256 35.8054C28.3304 36.7417 29.3416 37.3667 30.5 37.3667Z" stroke="#E18F43"/>
<mask id="path-8-inside-2" fill="white">
<path d="M20 34.7333C20 33.6288 20.8954 32.7333 22 32.7333H66C69.866 32.7333 73 35.8673 73 39.7333V65C73 68.866 69.866 72 66 72H22C20.8954 72 20 71.1046 20 70V34.7333Z"/>
</mask>
<path d="M20 34.7333C20 33.6288 20.8954 32.7333 22 32.7333H66C69.866 32.7333 73 35.8673 73 39.7333V65C73 68.866 69.866 72 66 72H22C20.8954 72 20 71.1046 20 70V34.7333Z" fill="#B27214" stroke="#583604" stroke-width="6" mask="url(#path-8-inside-2)"/>
<path d="M55 45.35H72C73.5188 45.35 74.75 46.5812 74.75 48.1V55.6C74.75 57.1188 73.5188 58.35 72 58.35H55C54.0335 58.35 53.25 57.5665 53.25 56.6V47.1C53.25 46.1335 54.0335 45.35 55 45.35Z" fill="#B27214" stroke="#583604" stroke-width="2.5"/>
<path d="M66 51.85C66 54.4677 63.9546 56.5334 61.5 56.5334C59.0454 56.5334 57 54.4677 57 51.85C57 49.2323 59.0454 47.1667 61.5 47.1667C63.9546 47.1667 66 49.2323 66 51.85Z" fill="#C9BDA8" stroke="#7C6C5E" stroke-width="2"/>
</svg>
