<svg width="91" height="90" viewBox="0 0 91 90" fill="none" xmlns="http://www.w3.org/2000/svg">
<ellipse cx="45.5" cy="45" rx="45.5" ry="45" fill="#83B6B6"/>
<ellipse cx="46" cy="44.5" rx="16" ry="16.5" fill="#FAA423"/>
<path d="M45 13L51.0622 22H38.9378L45 13Z" fill="#FFDF6E"/>
<path d="M46 75L39.9378 66H52.0622L46 75Z" fill="#FFDF6E"/>
<path d="M78 45L69 51.0622V38.9378L78 45Z" fill="#FFDF6E"/>
<path d="M70.3669 23.4129L67.6609 33.9214L59.6118 24.8543L70.3669 23.4129Z" fill="#FFDF6E"/>
<path d="M20.6475 24.058L31.4025 25.5L23.3528 34.5666L20.6475 24.058Z" fill="#FFDF6E"/>
<path d="M59.3344 65.6585L65.4865 56.7197L69.9299 68.0005L59.3344 65.6585Z" fill="#FFDF6E"/>
<path d="M32.24 65.1401L22 68.7307L25.0644 57L32.24 65.1401Z" fill="#FFDF6E"/>
<path d="M14 45L23 38.9378V51.0622L14 45Z" fill="#FFDF6E"/>
</svg>
